<?xml version="1.0" encoding="UTF-8"?>
<svg xmlns="http://www.w3.org/2000/svg" viewBox="0 0 256 256">
  <defs>
    <linearGradient id="bg" x1="0" y1="0" x2="1" y2="1">
      <stop offset="0%" stop-color="#f8fafc"/>
      <stop offset="100%" stop-color="#dbeafe"/>
    </linearGradient>
    <linearGradient id="accent" x1="0" y1="0" x2="1" y2="0">
      <stop offset="0%" stop-color="#2563eb"/>
      <stop offset="100%" stop-color="#0ea5e9"/>
    </linearGradient>
  </defs>
  <rect x="18" y="18" width="220" height="220" rx="28" fill="url(#bg)" stroke="#93c5fd" stroke-width="2"/>
  <rect x="38" y="42" width="180" height="28" rx="8" fill="#e2e8f0" stroke="#cbd5e1" stroke-width="1"/>
  <circle cx="54" cy="56" r="4" fill="#ef4444"/>
  <circle cx="68" cy="56" r="4" fill="#f59e0b"/>
  <circle cx="82" cy="56" r="4" fill="#10b981"/>
  <rect x="38" y="80" width="46" height="138" rx="8" fill="#e2e8f0" stroke="#94a3b8" stroke-width="2"/>
  <rect x="94" y="80" width="124" height="138" rx="8" fill="#ffffff" stroke="#94a3b8" stroke-width="2"/>
  <rect x="50" y="96" width="22" height="6" rx="3" fill="#64748b"/>
  <rect x="50" y="112" width="26" height="6" rx="3" fill="#64748b"/>
  <rect x="50" y="128" width="20" height="6" rx="3" fill="#64748b"/>
  <path d="M112 108h56M112 126h84M112 144h64M112 162h92M112 180h72" stroke="url(#accent)" stroke-linecap="round" stroke-width="6"/>
  <path d="M102 108h0M102 126h0M102 144h0M102 162h0M102 180h0" stroke="#94a3b8" stroke-linecap="round" stroke-width="6"/>
</svg>
