<?xml version="1.0" encoding="UTF-8"?>
<svg xmlns="http://www.w3.org/2000/svg" viewBox="0 0 256 256">
  <defs>
    <!-- Sytější gradient pozadí -->
    <linearGradient id="bg" x1="0" y1="0" x2="1" y2="1">
      <stop offset="0%" stop-color="#ffffff"/>
      <stop offset="100%" stop-color="#bfdbfe"/>
    </linearGradient>
    <!-- Sytější modrá pro kódové řádky -->
    <linearGradient id="accent" x1="0" y1="0" x2="1" y2="0">
      <stop offset="0%" stop-color="#1d4ed8"/>
      <stop offset="100%" stop-color="#0ea5e9"/>
    </linearGradient>
  </defs>
  
  <!-- Hlavní tělo (původní tvary, sytější okraj) -->
  <rect x="18" y="18" width="220" height="220" rx="28" fill="url(#bg)" stroke="#2563eb" stroke-width="3"/>
  
  <!-- Horní lišta (původní tvar, tmavší šedá) -->
  <rect x="38" y="42" width="180" height="28" rx="8" fill="#f1f5f9" stroke="#94a3b8" stroke-width="1.5"/>
  
  <!-- Tečky (sytější barvy) -->
  <circle cx="54" cy="56" r="4.5" fill="#ef4444"/>
  <circle cx="68" cy="56" r="4.5" fill="#f59e0b"/>
  <circle cx="82" cy="56" r="4.5" fill="#10b981"/>
  
  <!-- Boční panel (tmavší šedá pro kontrast) -->
  <rect x="38" y="80" width="46" height="138" rx="8" fill="#f1f5f9" stroke="#64748b" stroke-width="2"/>
  
  <!-- Hlavní editační plocha -->
  <rect x="94" y="80" width="124" height="138" rx="8" fill="#ffffff" stroke="#64748b" stroke-width="2"/>
  
  <!-- Simulace textu vlevo (tmavší šedá) -->
  <rect x="50" y="96" width="22" height="6" rx="3" fill="#475569"/>
  <rect x="50" y="112" width="26" height="6" rx="3" fill="#475569"/>
  <rect x="50" y="128" width="20" height="6" rx="3" fill="#475569"/>
  
  <!-- Kódové řádky (sytější modrá a trochu tlustší pro viditelnost) -->
  <path d="M112 108h56M112 126h84M112 144h64M112 162h92M112 180h72" stroke="url(#accent)" stroke-linecap="round" stroke-width="7"/>
  
  <!-- Číslování/zarážky (tmavší šedá) -->
  <path d="M102 108h0M102 126h0M102 144h0M102 162h0M102 180h0" stroke="#64748b" stroke-linecap="round" stroke-width="7"/>
</svg>
