<?xml version="1.0" encoding="UTF-8"?>
<svg xmlns="http://www.w3.org/2000/svg" viewBox="0 0 1400 790" width="1400" height="790"
     font-family="'Courier New', Courier, monospace">

  <defs>
    <marker id="ah" viewBox="0 0 10 10" refX="8" refY="5"
            markerUnits="strokeWidth" markerWidth="8" markerHeight="6" orient="auto">
      <path d="M 0 0 L 10 5 L 0 10 z" fill="#4a5568"/>
    </marker>
    <marker id="ahd" viewBox="0 0 10 10" refX="8" refY="5"
            markerUnits="strokeWidth" markerWidth="8" markerHeight="6" orient="auto">
      <path d="M 0 0 L 10 5 L 0 10 z" fill="#a0aec0"/>
    </marker>
  </defs>

  <!-- ══════════════════════════════════ -->
  <!-- BACKGROUND                         -->
  <!-- ══════════════════════════════════ -->
  <rect width="1400" height="790" fill="#f7fafc"/>

  <!-- Section strips -->
  <rect x="0" y="44"  width="1400" height="68" fill="#fffaf0" opacity="0.8"/>
  <rect x="0" y="122" width="1400" height="72" fill="#ebf4ff" opacity="0.8"/>
  <rect x="0" y="204" width="1400" height="72" fill="#f0fff4" opacity="0.8"/>
  <rect x="0" y="286" width="1400" height="72" fill="#faf5ff" opacity="0.8"/>
  <rect x="0" y="368" width="1400" height="72" fill="#ebf8ff" opacity="0.8"/>
  <rect x="0" y="450" width="1400" height="68" fill="#e6fffa" opacity="0.8"/>
  <rect x="0" y="528" width="1400" height="72" fill="#fff5f5" opacity="0.8"/>
  <rect x="0" y="616" width="1400" height="100" fill="#edf2f7" opacity="0.8"/>

  <!-- ══════════════════════════════════ -->
  <!-- TITLE                              -->
  <!-- ══════════════════════════════════ -->
  <text x="700" y="28" text-anchor="middle"
        font-family="'Segoe UI', Arial, sans-serif"
        font-size="19" font-weight="bold" fill="#1a202c">
    Rust Editor — Architektura modulů
  </text>

  <!-- ══════════════════════════════════ -->
  <!-- SECTION LABELS (left margin)       -->
  <!-- ══════════════════════════════════ -->
  <text x="8" y="68"  font-size="9" fill="#a0aec0" font-style="italic" font-family="sans-serif">Vstupní bod</text>
  <text x="8" y="152" font-size="9" fill="#a0aec0" font-style="italic" font-family="sans-serif">Jádro aplikace</text>
  <text x="8" y="232" font-size="9" fill="#a0aec0" font-style="italic" font-family="sans-serif">Orchestrace</text>
  <text x="8" y="314" font-size="9" fill="#a0aec0" font-style="italic" font-family="sans-serif">Typy &amp; konfig.</text>
  <text x="8" y="394" font-size="9" fill="#a0aec0" font-style="italic" font-family="sans-serif">Moduly funkcí</text>
  <text x="8" y="472" font-size="9" fill="#a0aec0" font-style="italic" font-family="sans-serif">Submoduly</text>
  <text x="8" y="554" font-size="9" fill="#a0aec0" font-style="italic" font-family="sans-serif">Infrastruktura</text>
  <text x="8" y="640" font-size="9" fill="#a0aec0" font-style="italic" font-family="sans-serif">Ext. závislosti</text>

  <!-- ══════════════════════════════════ -->
  <!-- ROW 1 — main.rs                    -->
  <!-- ══════════════════════════════════ -->
  <rect x="580" y="52" width="240" height="46" rx="8"
        fill="#c05621" stroke="#7b341e" stroke-width="1.5"/>
  <text x="700" y="71" text-anchor="middle" font-size="13" font-weight="bold" fill="white">main.rs</text>
  <text x="700" y="88" text-anchor="middle" font-size="10" fill="#fbd38d">eframe init · CLI args · PATH env fix</text>

  <!-- ══════════════════════════════════ -->
  <!-- ROW 2 — EditorApp                  -->
  <!-- ══════════════════════════════════ -->
  <rect x="390" y="130" width="620" height="46" rx="8"
        fill="#2b6cb0" stroke="#1a4a8a" stroke-width="1.5"/>
  <text x="700" y="149" text-anchor="middle" font-size="13" font-weight="bold" fill="white">app/mod.rs  ·  EditorApp</text>
  <text x="700" y="166" text-anchor="middle" font-size="10" fill="#bee3f8">multi-viewport orchestrátor  ·  session restore  ·  IPC  ·  confirm dialogy  ·  AppShared</text>

  <!-- ══════════════════════════════════ -->
  <!-- ROW 3 — Orchestration              -->
  <!-- ══════════════════════════════════ -->

  <!-- workspace.rs -->
  <rect x="40" y="210" width="310" height="46" rx="8"
        fill="#276749" stroke="#1c4532" stroke-width="1.5"/>
  <text x="195" y="229" text-anchor="middle" font-size="12" font-weight="bold" fill="white">app/workspace.rs</text>
  <text x="195" y="247" text-anchor="middle" font-size="10" fill="#c6f6d5">WorkspaceState · render_workspace · FilePicker · ProjectSearch</text>

  <!-- dialogs.rs -->
  <rect x="375" y="210" width="215" height="46" rx="8"
        fill="#276749" stroke="#1c4532" stroke-width="1.5"/>
  <text x="482" y="229" text-anchor="middle" font-size="12" font-weight="bold" fill="white">app/dialogs.rs</text>
  <text x="482" y="247" text-anchor="middle" font-size="10" fill="#c6f6d5">WizardState · startup dialog</text>

  <!-- build_runner.rs -->
  <rect x="612" y="210" width="248" height="46" rx="8"
        fill="#276749" stroke="#1c4532" stroke-width="1.5"/>
  <text x="736" y="229" text-anchor="middle" font-size="12" font-weight="bold" fill="white">app/build_runner.rs</text>
  <text x="736" y="247" text-anchor="middle" font-size="10" fill="#c6f6d5">BuildError · cargo build · JSON parser</text>

  <!-- ipc.rs -->
  <rect x="882" y="210" width="215" height="46" rx="8"
        fill="#276749" stroke="#1c4532" stroke-width="1.5"/>
  <text x="989" y="229" text-anchor="middle" font-size="12" font-weight="bold" fill="white">ipc.rs</text>
  <text x="989" y="247" text-anchor="middle" font-size="10" fill="#c6f6d5">IpcServer · Unix socket · session.json</text>

  <!-- ══════════════════════════════════ -->
  <!-- ROW 4 — Types / Config             -->
  <!-- ══════════════════════════════════ -->

  <!-- types.rs -->
  <rect x="40" y="292" width="225" height="46" rx="8"
        fill="#553c9a" stroke="#322659" stroke-width="1.5"/>
  <text x="152" y="311" text-anchor="middle" font-size="12" font-weight="bold" fill="white">app/types.rs</text>
  <text x="152" y="329" text-anchor="middle" font-size="10" fill="#e9d8fd">AppShared · AppAction · Toast · AiTool</text>

  <!-- config.rs -->
  <rect x="285" y="292" width="200" height="46" rx="8"
        fill="#553c9a" stroke="#322659" stroke-width="1.5"/>
  <text x="385" y="311" text-anchor="middle" font-size="12" font-weight="bold" fill="white">config.rs</text>
  <text x="385" y="329" text-anchor="middle" font-size="10" fill="#e9d8fd">konstanty: fonty · šířky · limity</text>

  <!-- settings.rs -->
  <rect x="505" y="292" width="205" height="46" rx="8"
        fill="#553c9a" stroke="#322659" stroke-width="1.5"/>
  <text x="607" y="311" text-anchor="middle" font-size="12" font-weight="bold" fill="white">settings.rs</text>
  <text x="607" y="329" text-anchor="middle" font-size="10" fill="#e9d8fd">Settings · dark/light · font · cesta</text>

  <!-- watcher.rs -->
  <rect x="730" y="292" width="235" height="46" rx="8"
        fill="#744210" stroke="#4a2c0a" stroke-width="1.5"/>
  <text x="847" y="311" text-anchor="middle" font-size="12" font-weight="bold" fill="white">watcher.rs</text>
  <text x="847" y="329" text-anchor="middle" font-size="10" fill="#fef3c7">FileWatcher · ProjectWatcher · FsChange</text>

  <!-- ══════════════════════════════════ -->
  <!-- ROW 5 — Feature Modules            -->
  <!-- ══════════════════════════════════ -->

  <!-- editor/ -->
  <rect x="40" y="374" width="300" height="46" rx="8"
        fill="#1a365d" stroke="#0a1f3c" stroke-width="1.5"/>
  <text x="190" y="393" text-anchor="middle" font-size="12" font-weight="bold" fill="white">modules/editor/</text>
  <text x="190" y="411" text-anchor="middle" font-size="10" fill="#bee3f8">Editor · tabs · search&amp;replace · markdown · autosave · goto-line</text>

  <!-- file_tree.rs -->
  <rect x="362" y="374" width="280" height="46" rx="8"
        fill="#1a365d" stroke="#0a1f3c" stroke-width="1.5"/>
  <text x="502" y="393" text-anchor="middle" font-size="12" font-weight="bold" fill="white">modules/file_tree.rs</text>
  <text x="502" y="411" text-anchor="middle" font-size="10" fill="#bee3f8">FileTree · FileNode · context menu · git barvy</text>

  <!-- terminal.rs -->
  <rect x="664" y="374" width="265" height="46" rx="8"
        fill="#1a365d" stroke="#0a1f3c" stroke-width="1.5"/>
  <text x="796" y="393" text-anchor="middle" font-size="12" font-weight="bold" fill="white">modules/terminal.rs</text>
  <text x="796" y="411" text-anchor="middle" font-size="10" fill="#bee3f8">Terminal · PTY backend · Claude/Build</text>

  <!-- editor/ submodules (inside the box, small annotation) -->
  <rect x="48"  y="418" width="62" height="14" rx="3" fill="#2a4a7f" opacity="0.8"/>
  <text x="79"  y="428" text-anchor="middle" font-size="8" fill="#bee3f8">render.rs</text>
  <rect x="118" y="418" width="72" height="14" rx="3" fill="#2a4a7f" opacity="0.8"/>
  <text x="154" y="428" text-anchor="middle" font-size="8" fill="#bee3f8">search.rs</text>
  <rect x="198" y="418" width="82" height="14" rx="3" fill="#2a4a7f" opacity="0.8"/>
  <text x="239" y="428" text-anchor="middle" font-size="8" fill="#bee3f8">markdown.rs</text>

  <!-- ══════════════════════════════════ -->
  <!-- ROW 6 — Workspace Submodules       -->
  <!-- ══════════════════════════════════ -->

  <!-- Group bounding box -->
  <rect x="35" y="450" width="1100" height="56" rx="6"
        fill="none" stroke="#319795" stroke-width="1.5" stroke-dasharray="6,3"/>
  <text x="1148" y="467" font-size="9" fill="#319795" font-style="italic" font-family="sans-serif">workspace/</text>

  <!-- ai_panel.rs -->
  <rect x="44"  y="456" width="250" height="44" rx="6"
        fill="#2c7a7b" stroke="#285e61" stroke-width="1.5"/>
  <text x="169" y="474" text-anchor="middle" font-size="11" font-weight="bold" fill="white">workspace/ai_panel.rs</text>
  <text x="169" y="490" text-anchor="middle" font-size="9" fill="#c6f6d5">Claude tab panel · AI tool picker · + tab</text>

  <!-- background.rs -->
  <rect x="314" y="456" width="255" height="44" rx="6"
        fill="#2c7a7b" stroke="#285e61" stroke-width="1.5"/>
  <text x="441" y="474" text-anchor="middle" font-size="11" font-weight="bold" fill="white">workspace/background.rs</text>
  <text x="441" y="490" text-anchor="middle" font-size="9" fill="#c6f6d5">autosave · git branch/status · file watchers</text>

  <!-- panels.rs -->
  <rect x="590" y="456" width="235" height="44" rx="6"
        fill="#2c7a7b" stroke="#285e61" stroke-width="1.5"/>
  <text x="707" y="474" text-anchor="middle" font-size="11" font-weight="bold" fill="white">workspace/panels.rs</text>
  <text x="707" y="490" text-anchor="middle" font-size="9" fill="#c6f6d5">levý panel · build terminál · toast notif.</text>

  <!-- search_picker.rs -->
  <rect x="845" y="456" width="280" height="44" rx="6"
        fill="#2c7a7b" stroke="#285e61" stroke-width="1.5"/>
  <text x="985" y="474" text-anchor="middle" font-size="11" font-weight="bold" fill="white">workspace/search_picker.rs</text>
  <text x="985" y="490" text-anchor="middle" font-size="9" fill="#c6f6d5">Ctrl+P fuzzy picker · Ctrl+Shift+F hledání</text>

  <!-- ══════════════════════════════════ -->
  <!-- ROW 7 — Infrastructure             -->
  <!-- ══════════════════════════════════ -->

  <!-- highlighter.rs -->
  <rect x="40" y="534" width="275" height="46" rx="8"
        fill="#9b2335" stroke="#63171b" stroke-width="1.5"/>
  <text x="177" y="553" text-anchor="middle" font-size="12" font-weight="bold" fill="white">highlighter.rs</text>
  <text x="177" y="571" text-anchor="middle" font-size="10" fill="#fed7d7">Highlighter · syntect · LayoutJob · theme</text>

  <!-- ══════════════════════════════════ -->
  <!-- ROW 8 — External Dependencies      -->
  <!-- ══════════════════════════════════ -->

  <rect x="40"   y="628" width="175" height="42" rx="6" fill="#4a5568" stroke="#2d3748" stroke-width="1"/>
  <text x="127"  y="645" text-anchor="middle" font-size="11" font-weight="bold" fill="white">eframe / egui</text>
  <text x="127"  y="660" text-anchor="middle" font-size="9"  fill="#e2e8f0">GUI framework</text>

  <rect x="230"  y="628" width="145" height="42" rx="6" fill="#4a5568" stroke="#2d3748" stroke-width="1"/>
  <text x="302"  y="645" text-anchor="middle" font-size="11" font-weight="bold" fill="white">syntect</text>
  <text x="302"  y="660" text-anchor="middle" font-size="9"  fill="#e2e8f0">syntax highlighting</text>

  <rect x="390"  y="628" width="135" height="42" rx="6" fill="#4a5568" stroke="#2d3748" stroke-width="1"/>
  <text x="457"  y="645" text-anchor="middle" font-size="11" font-weight="bold" fill="white">notify</text>
  <text x="457"  y="660" text-anchor="middle" font-size="9"  fill="#e2e8f0">file watching</text>

  <rect x="540"  y="628" width="165" height="42" rx="6" fill="#4a5568" stroke="#2d3748" stroke-width="1"/>
  <text x="622"  y="645" text-anchor="middle" font-size="11" font-weight="bold" fill="white">egui_term</text>
  <text x="622"  y="660" text-anchor="middle" font-size="9"  fill="#e2e8f0">terminál / PTY</text>

  <rect x="720"  y="628" width="155" height="42" rx="6" fill="#4a5568" stroke="#2d3748" stroke-width="1"/>
  <text x="797"  y="645" text-anchor="middle" font-size="11" font-weight="bold" fill="white">serde_json</text>
  <text x="797"  y="660" text-anchor="middle" font-size="9"  fill="#e2e8f0">serializace / JSON</text>

  <rect x="890"  y="628" width="155" height="42" rx="6" fill="#4a5568" stroke="#2d3748" stroke-width="1"/>
  <text x="967"  y="645" text-anchor="middle" font-size="11" font-weight="bold" fill="white">dirs · rfd</text>
  <text x="967"  y="660" text-anchor="middle" font-size="9"  fill="#e2e8f0">cesty · nativní dialogy</text>

  <rect x="1060" y="628" width="250" height="42" rx="6" fill="#4a5568" stroke="#2d3748" stroke-width="1"/>
  <text x="1185" y="645" text-anchor="middle" font-size="11" font-weight="bold" fill="white">pulldown-cmark · arboard</text>
  <text x="1185" y="660" text-anchor="middle" font-size="9"  fill="#e2e8f0">markdown rendering · clipboard</text>

  <!-- ══════════════════════════════════════════════════════ -->
  <!-- ARROWS                                                  -->
  <!-- ══════════════════════════════════════════════════════ -->

  <!-- 1. main.rs → EditorApp (vertical) -->
  <line x1="700" y1="98" x2="700" y2="130"
        stroke="#4a5568" stroke-width="2.5" marker-end="url(#ah)"/>

  <!-- 2. EditorApp → workspace.rs (bezier fan left) -->
  <path d="M 570 176 C 570 196 195 196 195 210"
        fill="none" stroke="#4a5568" stroke-width="2" marker-end="url(#ah)"/>

  <!-- 3. EditorApp → dialogs.rs (bezier) -->
  <path d="M 630 176 C 630 196 482 196 482 210"
        fill="none" stroke="#4a5568" stroke-width="1.5" marker-end="url(#ah)"/>

  <!-- 4. EditorApp → build_runner.rs (bezier, nearly vertical) -->
  <path d="M 730 176 C 730 196 736 196 736 210"
        fill="none" stroke="#4a5568" stroke-width="1.5" marker-end="url(#ah)"/>

  <!-- 5. EditorApp → ipc.rs (bezier fan right) -->
  <path d="M 820 176 C 820 196 989 196 989 210"
        fill="none" stroke="#4a5568" stroke-width="1.5" marker-end="url(#ah)"/>

  <!-- 6. workspace.rs → editor/ (solid, nearly vertical) -->
  <line x1="190" y1="256" x2="190" y2="374"
        stroke="#4a5568" stroke-width="2" marker-end="url(#ah)"/>

  <!-- 7. workspace.rs → file_tree.rs (solid curve) -->
  <path d="M 210 256 C 210 330 502 330 502 374"
        fill="none" stroke="#4a5568" stroke-width="1.5" marker-end="url(#ah)"/>

  <!-- 8. workspace.rs → terminal.rs (solid curve, long) -->
  <path d="M 220 256 C 220 340 796 340 796 374"
        fill="none" stroke="#4a5568" stroke-width="1.5" marker-end="url(#ah)"/>

  <!-- 9. workspace.rs → types.rs (dashed, nearly vertical) -->
  <path d="M 160 256 C 160 274 152 274 152 292"
        fill="none" stroke="#a0aec0" stroke-width="1.2" stroke-dasharray="5,3"
        marker-end="url(#ahd)"/>

  <!-- 10. workspace.rs → config.rs (dashed) -->
  <path d="M 195 256 C 195 272 385 272 385 292"
        fill="none" stroke="#a0aec0" stroke-width="1.2" stroke-dasharray="5,3"
        marker-end="url(#ahd)"/>

  <!-- 11. workspace.rs → settings.rs (dashed) -->
  <path d="M 200 256 C 200 270 607 270 607 292"
        fill="none" stroke="#a0aec0" stroke-width="1.2" stroke-dasharray="5,3"
        marker-end="url(#ahd)"/>

  <!-- 12. workspace.rs → watcher.rs (dashed, long right) -->
  <path d="M 205 256 C 205 268 847 268 847 292"
        fill="none" stroke="#a0aec0" stroke-width="1.2" stroke-dasharray="5,3"
        marker-end="url(#ahd)"/>

  <!-- 13. workspace.rs → submodule group (left bracket line) -->
  <path d="M 40 238 L 16 238 L 16 478 L 35 478"
        fill="none" stroke="#319795" stroke-width="1.5" stroke-dasharray="5,3"/>
  <line x1="35" y1="478" x2="42" y2="478"
        stroke="#319795" stroke-width="1.5" marker-end="url(#ah)"/>

  <!-- 14. editor/ → highlighter.rs (solid, vertical) -->
  <line x1="177" y1="420" x2="177" y2="534"
        stroke="#4a5568" stroke-width="2" marker-end="url(#ah)"/>

  <!-- 15. highlighter → syntect external dep (dashed) -->
  <line x1="280" y1="580" x2="302" y2="628"
        stroke="#a0aec0" stroke-width="1" stroke-dasharray="3,3"
        marker-end="url(#ahd)"/>

  <!-- 16. terminal → egui_term external dep (dashed) -->
  <line x1="760" y1="420" x2="622" y2="628"
        stroke="#a0aec0" stroke-width="1" stroke-dasharray="3,3"
        marker-end="url(#ahd)"/>

  <!-- ══════════════════════════════════ -->
  <!-- LEGEND                             -->
  <!-- ══════════════════════════════════ -->
  <line x1="40" y1="722" x2="1360" y2="722" stroke="#cbd5e0" stroke-width="1"/>

  <text x="40" y="742" font-size="10" fill="#718096" font-family="sans-serif">Legenda:</text>

  <!-- solid arrow -->
  <line x1="100" y1="738" x2="138" y2="738"
        stroke="#4a5568" stroke-width="2" marker-end="url(#ah)"/>
  <text x="145" y="742" font-size="10" fill="#4a5568" font-family="sans-serif">přímé použití (use mod)</text>

  <!-- dashed arrow -->
  <line x1="300" y1="738" x2="338" y2="738"
        stroke="#a0aec0" stroke-width="1.5" stroke-dasharray="5,3" marker-end="url(#ahd)"/>
  <text x="345" y="742" font-size="10" fill="#718096" font-family="sans-serif">import typů / konfigurace</text>

  <!-- color boxes -->
  <rect x="525" y="731" width="13" height="13" rx="2" fill="#c05621"/>
  <text x="544" y="742" font-size="10" fill="#4a5568" font-family="sans-serif">vstupní bod</text>

  <rect x="635" y="731" width="13" height="13" rx="2" fill="#2b6cb0"/>
  <text x="654" y="742" font-size="10" fill="#4a5568" font-family="sans-serif">jádro</text>

  <rect x="697" y="731" width="13" height="13" rx="2" fill="#276749"/>
  <text x="716" y="742" font-size="10" fill="#4a5568" font-family="sans-serif">orchestrace</text>

  <rect x="802" y="731" width="13" height="13" rx="2" fill="#553c9a"/>
  <text x="821" y="742" font-size="10" fill="#4a5568" font-family="sans-serif">typy / config</text>

  <rect x="905" y="731" width="13" height="13" rx="2" fill="#1a365d"/>
  <text x="924" y="742" font-size="10" fill="#4a5568" font-family="sans-serif">moduly funkcí</text>

  <rect x="1020" y="731" width="13" height="13" rx="2" fill="#2c7a7b"/>
  <text x="1039" y="742" font-size="10" fill="#4a5568" font-family="sans-serif">WS submoduly</text>

  <rect x="1140" y="731" width="13" height="13" rx="2" fill="#9b2335"/>
  <text x="1159" y="742" font-size="10" fill="#4a5568" font-family="sans-serif">infrastruktura</text>

  <rect x="1253" y="731" width="13" height="13" rx="2" fill="#4a5568"/>
  <text x="1272" y="742" font-size="10" fill="#4a5568" font-family="sans-serif">ext. závislosti</text>

</svg>
